<svg xmlns="http://www.w3.org/2000/svg" xmlns:xlink="http://www.w3.org/1999/xlink" width="50" height="50" viewBox="0 0 50 50"><g id="surface259266"><path style="fill-rule:nonzero;fill:#000;fill-opacity:1;stroke-width:14;stroke-linecap:butt;stroke-linejoin:round;stroke:#ccc;stroke-opacity:1;stroke-miterlimit:10" d="M 93.111402 8.734375 L 151.049712 41.295589 C 155.456165 43.782399 158.23383 48.421536 158.23383 53.438784 L 158.23383 118.561212 C 158.23383 123.57846 155.470708 128.23214 151.049712 130.71895 L 93.111402 163.265621 C 88.704949 165.752431 83.295047 165.752431 78.888594 163.265621 L 20.950284 130.71895 C 16.543831 128.23214 13.766166 123.593003 13.766166 118.561212 L 13.766166 53.438784 C 13.766166 48.421536 16.543831 43.782399 20.950284 41.295589 L 78.888594 8.734375 C 81.099092 7.498241 83.542273 6.872903 85.999998 6.872903 C 88.457722 6.872903 90.900904 7.498241 93.111402 8.734375 Z M 82.247969 14.725987 L 24.324201 47.287201 C 22.011904 48.596049 20.644886 50.922888 20.644886 53.438784 L 20.644886 118.561212 C 20.644886 121.09165 22.011904 123.403947 24.324201 124.712795 L 82.247969 157.274008 C 84.560266 158.568313 87.43973 158.568313 89.752027 157.274008 L 147.675794 124.712795 C 149.988091 123.403947 151.35511 121.077107 151.35511 118.561212 L 151.35511 89.446629 L 144.47639 89.446629 L 144.47639 96.325349 L 137.59767 96.325349 L 137.59767 89.446629 L 130.71895 89.446629 L 130.71895 82.553367 L 137.59767 82.553367 L 137.59767 75.674646 L 144.47639 75.674646 L 144.47639 82.553367 L 151.35511 82.553367 L 151.35511 53.438784 C 151.35511 50.922888 149.988091 48.596049 147.690337 47.287201 L 89.752027 14.725987 C 88.588607 14.086106 87.294303 13.766166 85.999998 13.766166 C 84.705693 13.766166 83.411389 14.086106 82.247969 14.725987 Z M 121.571561 58.950486 L 123.927486 62.048091 L 103.087727 74.118572 L 101.211713 72.082588 C 97.328799 67.836105 91.817097 65.363838 85.999998 65.363838 C 74.598483 65.363838 65.363838 74.598483 65.363838 85.999998 C 65.363838 97.401513 74.598483 106.636158 85.999998 106.636158 C 91.817097 106.636158 97.328799 104.163891 101.211713 99.917408 L 103.087727 97.881423 L 123.927486 109.951905 L 121.571561 113.04951 C 113.136767 124.16017 100.062836 130.71895 85.999998 130.71895 C 61.364582 130.71895 41.281046 110.635414 41.281046 85.999998 C 41.281046 61.364582 61.364582 41.281046 85.999998 41.281046 C 100.062836 41.281046 113.136767 47.839826 121.571561 58.950486 Z M 48.159766 85.999998 C 48.159766 106.897928 65.102068 123.84023 85.999998 123.84023 C 96.572576 123.84023 106.243504 119.317435 113.325822 111.755206 L 103.902121 106.301675 C 98.928501 110.664499 92.747833 113.514878 85.999998 113.514878 C 70.860997 113.514878 58.485118 101.138999 58.485118 85.999998 C 58.485118 70.860997 70.860997 58.485118 85.999998 58.485118 C 92.747833 58.485118 98.928501 61.335496 103.902121 65.698321 L 113.325822 60.24479 C 106.243504 52.682561 96.572576 48.159766 85.999998 48.159766 C 65.102068 48.159766 48.159766 65.102068 48.159766 85.999998 Z M 120.393598 75.674646 L 120.393598 82.553367 L 127.286861 82.553367 L 127.286861 89.446629 L 120.393598 89.446629 L 120.393598 96.325349 L 113.514878 96.325349 L 113.514878 89.446629 L 106.636158 89.446629 L 106.636158 82.553367 L 113.514878 82.553367 L 113.514878 75.674646 Z M 120.393598 75.674646" transform="matrix(0.268605,0,0,0.268605,1.9,1.9)"/><path style="stroke:none;fill-rule:nonzero;fill:#000;fill-opacity:1" d="M 25 3.746094 C 24.339844 3.746094 23.683594 3.914062 23.089844 4.246094 L 7.527344 12.992188 C 6.34375 13.660156 5.597656 14.90625 5.597656 16.253906 L 5.597656 33.746094 C 5.597656 35.097656 6.34375 36.34375 7.527344 37.011719 L 23.089844 45.753906 C 24.273438 46.421875 25.726562 46.421875 26.910156 45.753906 L 42.472656 37.011719 C 43.660156 36.34375 44.402344 35.09375 44.402344 33.746094 L 44.402344 16.253906 C 44.402344 14.90625 43.65625 13.660156 42.472656 12.992188 L 26.910156 4.246094 C 26.316406 3.914062 25.660156 3.746094 25 3.746094 Z M 25 5.597656 C 25.347656 5.597656 25.695312 5.683594 26.007812 5.855469 L 41.570312 14.601562 C 42.1875 14.953125 42.554688 15.578125 42.554688 16.253906 L 42.554688 24.074219 L 40.707031 24.074219 L 40.707031 22.226562 L 38.859375 22.226562 L 38.859375 24.074219 L 37.011719 24.074219 L 37.011719 25.925781 L 38.859375 25.925781 L 38.859375 27.773438 L 40.707031 27.773438 L 40.707031 25.925781 L 42.554688 25.925781 L 42.554688 33.746094 C 42.554688 34.421875 42.1875 35.046875 41.566406 35.398438 L 26.007812 44.144531 C 25.386719 44.492188 24.613281 44.492188 23.992188 44.144531 L 8.433594 35.398438 C 7.8125 35.046875 7.445312 34.425781 7.445312 33.746094 L 7.445312 16.253906 C 7.445312 15.578125 7.8125 14.953125 8.433594 14.601562 L 23.992188 5.855469 C 24.304688 5.683594 24.652344 5.597656 25 5.597656 Z M 25 12.988281 C 18.382812 12.988281 12.988281 18.382812 12.988281 25 C 12.988281 31.617188 18.382812 37.011719 25 37.011719 C 28.777344 37.011719 32.289062 35.25 34.554688 32.265625 L 35.1875 31.433594 L 29.589844 28.191406 L 29.085938 28.738281 C 28.042969 29.878906 26.5625 30.542969 25 30.542969 C 21.9375 30.542969 19.457031 28.0625 19.457031 25 C 19.457031 21.9375 21.9375 19.457031 25 19.457031 C 26.5625 19.457031 28.042969 20.121094 29.085938 21.261719 L 29.589844 21.808594 L 35.1875 18.566406 L 34.554688 17.734375 C 32.289062 14.75 28.777344 12.988281 25 12.988281 Z M 25 14.835938 C 27.839844 14.835938 30.4375 16.050781 32.339844 18.082031 L 29.808594 19.546875 C 28.472656 18.375 26.8125 17.609375 25 17.609375 C 20.933594 17.609375 17.609375 20.933594 17.609375 25 C 17.609375 29.066406 20.933594 32.390625 25 32.390625 C 26.8125 32.390625 28.472656 31.625 29.808594 30.453125 L 32.339844 31.917969 C 30.4375 33.949219 27.839844 35.164062 25 35.164062 C 19.386719 35.164062 14.835938 30.613281 14.835938 25 C 14.835938 19.386719 19.386719 14.835938 25 14.835938 Z M 32.390625 22.226562 L 32.390625 24.074219 L 30.542969 24.074219 L 30.542969 25.925781 L 32.390625 25.925781 L 32.390625 27.773438 L 34.238281 27.773438 L 34.238281 25.925781 L 36.089844 25.925781 L 36.089844 24.074219 L 34.238281 24.074219 L 34.238281 22.226562 Z M 32.390625 22.226562"/></g></svg>