<?xml version="1.0" encoding="utf-8"?>
<!-- Generator: Adobe Illustrator 25.3.1, SVG Export Plug-In . SVG Version: 6.00 Build 0)  -->
<svg xmlns="http://www.w3.org/2000/svg" xmlns:xlink="http://www.w3.org/1999/xlink" x="0px" y="0px"
	 viewBox="0 0 596.43 612" xml:space="preserve">
<path class="st1" d="M353.66,505.6l222.62,44.22l-87.23-211.12l-91.31-82.3l3.09-2.28V149.12L333.45,5.8V202.4l-1.3,0.41
	l-16.29,4.89l-6.82,2.03v-63.05L255.12,14.97v211.13l-0.04,0.01l-78.95,26.56l-108.6,30.88l-59.72,6.68l19.88,59.56l24.69,4.81
	l8.39,25.83h55.46h57.79l55.14,90.73l-21.73,130.78L353.66,505.6z M244.59,477.61h26.78v-94.75h49.67l21.87,110.31l-113.3,74.63
	L244.59,477.61z M255.08,281.31h-11.77l11.77-7.17V281.31z M271.41,297.6V248.3l64.57,46.09l14.99,17.52l-14.88,28.86l-13.34,25.81
	h-51.38V297.6H271.41z M336.29,375.98l0.02-0.04l20.88-40.52l3.62-7.01l54.27,103.54l116.42,92.37L358.9,490.03L336.29,375.98z
	 M543.43,512.99l-115.52-91.66c-19.13-37.24-38.26-74.47-57.38-111.71l-17.09-19.94c10.34-7.75,20.68-15.5,31.02-23.25l0.04-0.03
	l90.91,81.94L543.43,512.99z M349.75,214.54V78.72l34.79,74.06v93.2l-2.84,2.13l-40.26,30.13l-60.37-43.1L349.75,214.54z
	 M292.74,149.88v64.7l-14.53,4.36l-6.8,2.07V97.78L292.74,149.88z M180.77,268.23l74.3-24.93v11.77L185.2,297.6h69.88v66.44h-71.72
	l-45.18-83.67L180.77,268.23z M40.15,335.61l-10.51-31.45l40.33-4.48l52.11-14.82l15.88,29.41l-79.65,24.84L40.15,335.61z
	 M72.58,364.12l-3.67-11.24l0-0.01l76.94-23.99l18.99,35.16h-48.61v0.08H72.58z M255.08,380.42v80.9h-12.79l-49.25-80.9H255.08z"/>
</svg>
